<?xml version="1.0" encoding="UTF-8" standalone="no"?><!DOCTYPE svg PUBLIC "-//W3C//DTD SVG 1.1//EN" "http://www.w3.org/Graphics/SVG/1.1/DTD/svg11.dtd"><!-- Generated by graphviz version 2.40.1 (20161225.0304)
 --><!-- Title: G Pages: 1 --><svg xmlns="http://www.w3.org/2000/svg" xmlns:xlink="http://www.w3.org/1999/xlink" width="618pt" height="267pt" viewBox="0.00 0.00 618.00 267.20">
<g id="graph0" class="graph" transform="scale(1 1) rotate(0) translate(4 263.2)">
<title>G</title>
<polygon fill="#ffffff" stroke="transparent" points="-4,4 -4,-263.2 614,-263.2 614,4 -4,4"/>
<g id="clust1" class="cluster">
<title>cluster_0</title>
<polygon fill="#d3d3d3" stroke="#d3d3d3" points="8,-133.6 8,-251.2 340,-251.2 340,-133.6 8,-133.6"/>
<text text-anchor="middle" x="174" y="-234.6" font-family="Times,serif" font-size="14.00" fill="#000000">node-A</text>
</g>
<g id="clust2" class="cluster">
<title>cluster_1</title>
<polygon fill="#f0f0ee" stroke="#f0f0ee" points="94,-141.6 94,-218.4 332,-218.4 332,-141.6 94,-141.6"/>
<text text-anchor="middle" x="213" y="-201.8" font-family="Times,serif" font-size="14.00" fill="#000000">Peer (name=B)</text>
</g>
<g id="clust3" class="cluster">
<title>cluster_10</title>
<polygon fill="#f0f0ee" stroke="#f0f0ee" points="16,-141.6 16,-218.4 86,-218.4 86,-141.6 16,-141.6"/>
<text text-anchor="middle" x="51" y="-201.8" font-family="Times,serif" font-size="14.00" fill="#000000">peers</text>
</g>
<g id="clust4" class="cluster">
<title>cluster_5</title>
<polygon fill="#d3d3d3" stroke="#d3d3d3" points="348,-133.6 348,-251.2 602,-251.2 602,-133.6 348,-133.6"/>
<text text-anchor="middle" x="475" y="-234.6" font-family="Times,serif" font-size="14.00" fill="#000000">node-C</text>
</g>
<g id="clust5" class="cluster">
<title>cluster_6</title>
<polygon fill="#f0f0ee" stroke="#f0f0ee" points="356,-141.6 356,-218.4 594,-218.4 594,-141.6 356,-141.6"/>
<text text-anchor="middle" x="475" y="-201.8" font-family="Times,serif" font-size="14.00" fill="#000000">Peer (name=B)</text>
</g>
<g id="clust6" class="cluster">
<title>cluster_2</title>
<polygon fill="#d3d3d3" stroke="#d3d3d3" points="97,-8 97,-125.6 597,-125.6 597,-8 97,-8"/>
<text text-anchor="middle" x="347" y="-109" font-family="Times,serif" font-size="14.00" fill="#000000">node-B</text>
</g>
<g id="clust7" class="cluster">
<title>cluster_3</title>
<polygon fill="#f0f0ee" stroke="#f0f0ee" points="105,-16 105,-92.8 343,-92.8 343,-16 105,-16"/>
<text text-anchor="middle" x="224" y="-76.2" font-family="Times,serif" font-size="14.00" fill="#000000">Peer (name=A)</text>
</g>
<g id="clust8" class="cluster">
<title>cluster_4</title>
<polygon fill="#f0f0ee" stroke="#f0f0ee" points="351,-16 351,-92.8 589,-92.8 589,-16 351,-16"/>
<text text-anchor="middle" x="470" y="-76.2" font-family="Times,serif" font-size="14.00" fill="#000000">Peer (name=C)</text>
</g>
<!-- abl -->
<g id="abl" class="node">
<title>abl</title>
<polygon fill="#ffffff" stroke="#ffffff" points="323.7066,-185.6 228.2934,-185.6 228.2934,-149.6 323.7066,-149.6 323.7066,-185.6"/>
<text text-anchor="middle" x="276" y="-163.4" font-family="Times,serif" font-size="14.00" fill="#000000">local_index: 9</text>
</g>
<!-- abr -->
<g id="abr" class="node">
<title>abr</title>
<polygon fill="#ffffff" stroke="#ffffff" points="209.8674,-185.6 102.1326,-185.6 102.1326,-149.6 209.8674,-149.6 209.8674,-185.6"/>
<text text-anchor="middle" x="156" y="-163.4" font-family="Times,serif" font-size="14.00" fill="#000000">remote_index: 1</text>
</g>
<!-- bal -->
<g id="bal" class="node">
<title>bal</title>
<polygon fill="#ffffff" stroke="#ffffff" points="208.7066,-60 113.2934,-60 113.2934,-24 208.7066,-24 208.7066,-60"/>
<text text-anchor="middle" x="161" y="-37.8" font-family="Times,serif" font-size="14.00" fill="#000000">local_index: 1</text>
</g>
<!-- abr&#45;&gt;bal -->
<g id="edge1" class="edge">
<title>abr-&gt;bal</title>
<path fill="none" stroke="#000000" d="M156.727,-149.3367C157.5528,-128.5934 158.9103,-94.4938 159.8734,-70.3"/>
<polygon fill="#000000" stroke="#000000" points="163.3714,-70.4167 160.2721,-60.2854 156.377,-70.1382 163.3714,-70.4167"/>
</g>
<!-- others -->
<g id="node3" class="node">
<title>others</title>
<polygon fill="#ffffff" stroke="#ffffff" points="78,-185.6 24,-185.6 24,-149.6 78,-149.6 78,-185.6"/>
<text text-anchor="middle" x="51" y="-163.4" font-family="Times,serif" font-size="14.00" fill="#000000">...</text>
</g>
<!-- cbl -->
<g id="cbl" class="node">
<title>cbl</title>
<polygon fill="#ffffff" stroke="#ffffff" points="585.7066,-185.6 490.2934,-185.6 490.2934,-149.6 585.7066,-149.6 585.7066,-185.6"/>
<text text-anchor="middle" x="538" y="-163.4" font-family="Times,serif" font-size="14.00" fill="#000000">local_index: 0</text>
</g>
<!-- cbr -->
<g id="cbr" class="node">
<title>cbr</title>
<polygon fill="#ffffff" stroke="#ffffff" points="471.8674,-185.6 364.1326,-185.6 364.1326,-149.6 471.8674,-149.6 471.8674,-185.6"/>
<text text-anchor="middle" x="418" y="-163.4" font-family="Times,serif" font-size="14.00" fill="#000000">remote_index: 0</text>
</g>
<!-- bcl -->
<g id="bcl" class="node">
<title>bcl</title>
<polygon fill="#ffffff" stroke="#ffffff" points="454.7066,-60 359.2934,-60 359.2934,-24 454.7066,-24 454.7066,-60"/>
<text text-anchor="middle" x="407" y="-37.8" font-family="Times,serif" font-size="14.00" fill="#000000">local_index: 0</text>
</g>
<!-- cbr&#45;&gt;bcl -->
<g id="edge2" class="edge">
<title>cbr-&gt;bcl</title>
<path fill="none" stroke="#000000" d="M416.4005,-149.3367C414.5838,-128.5934 411.5974,-94.4938 409.4785,-70.3"/>
<polygon fill="#000000" stroke="#000000" points="412.9606,-69.9418 408.6014,-60.2854 405.9873,-70.5526 412.9606,-69.9418"/>
</g>
<!-- bar -->
<g id="bar" class="node">
<title>bar</title>
<polygon fill="#ffffff" stroke="#ffffff" points="334.8674,-60 227.1326,-60 227.1326,-24 334.8674,-24 334.8674,-60"/>
<text text-anchor="middle" x="281" y="-37.8" font-family="Times,serif" font-size="14.00" fill="#000000">remote_index: 9</text>
</g>
<!-- bar&#45;&gt;abl -->
<g id="edge3" class="edge">
<title>bar-&gt;abl</title>
<path fill="none" stroke="#000000" d="M280.2721,-60.2854C279.4459,-81.0381 278.0884,-115.1389 277.1256,-139.3257"/>
<polygon fill="#000000" stroke="#000000" points="273.6277,-139.2053 276.727,-149.3367 280.6221,-139.4839 273.6277,-139.2053"/>
</g>
<!-- bcr -->
<g id="bcr" class="node">
<title>bcr</title>
<polygon fill="#ffffff" stroke="#ffffff" points="580.8674,-60 473.1326,-60 473.1326,-24 580.8674,-24 580.8674,-60"/>
<text text-anchor="middle" x="527" y="-37.8" font-family="Times,serif" font-size="14.00" fill="#000000">remote_index: 0</text>
</g>
<!-- bcr&#45;&gt;cbl -->
<g id="edge4" class="edge">
<title>bcr-&gt;cbl</title>
<path fill="none" stroke="#000000" d="M528.6014,-60.2854C530.4189,-81.0381 533.4055,-115.1389 535.5237,-139.3257"/>
<polygon fill="#000000" stroke="#000000" points="532.0413,-139.6802 536.4005,-149.3367 539.0146,-139.0694 532.0413,-139.6802"/>
</g>
</g>
</svg>