<?xml version="1.0" encoding="UTF-8" standalone="no"?><!DOCTYPE svg PUBLIC "-//W3C//DTD SVG 1.1//EN" "http://www.w3.org/Graphics/SVG/1.1/DTD/svg11.dtd"><!-- Generated by graphviz version 2.40.1 (20161225.0304)
 --><!-- Title: G Pages: 1 --><svg xmlns="http://www.w3.org/2000/svg" xmlns:xlink="http://www.w3.org/1999/xlink" width="206pt" height="174pt" viewBox="0.00 0.00 205.51 174.13">
<g id="graph0" class="graph" transform="scale(1 1) rotate(0) translate(4 170.1283)">
<title>G</title>
<polygon fill="#ffffff" stroke="transparent" points="-4,4 -4,-170.1283 201.5144,-170.1283 201.5144,4 -4,4"/>
<!-- client&#45;A -->
<g id="node1" class="node">
<title>client-A</title>
<ellipse fill="none" stroke="#000000" cx="42.6756" cy="-18" rx="42.8518" ry="18"/>
<text text-anchor="middle" x="42.6756" y="-13.8" font-family="Times,serif" font-size="14.00" fill="#000000">client-A</text>
</g>
<!-- server -->
<g id="node2" class="node">
<title>server</title>
<ellipse fill="none" stroke="#000000" cx="42.6756" cy="-148.1283" rx="34.7476" ry="18"/>
<text text-anchor="middle" x="42.6756" y="-143.9283" font-family="Times,serif" font-size="14.00" fill="#000000">server</text>
</g>
<!-- client&#45;A&#45;&gt;server -->
<g id="edge1" class="edge">
<title>client-A-&gt;server</title>
<path fill="none" stroke="#000000" d="M37.8306,-36.0938C35.6035,-57.8475 35.3291,-94.6008 37.0075,-120.0501"/>
<polygon fill="#000000" stroke="#000000" points="33.5336,-120.5109 37.8464,-130.1882 40.5097,-119.9336 33.5336,-120.5109"/>
</g>
<!-- client&#45;B -->
<g id="node3" class="node">
<title>client-B</title>
<ellipse fill="none" stroke="#000000" cx="155.37" cy="-83.0642" rx="42.2893" ry="18"/>
<text text-anchor="middle" x="155.37" y="-78.8642" font-family="Times,serif" font-size="14.00" fill="#000000">client-B</text>
</g>
<!-- client&#45;A&#45;&gt;client&#45;B -->
<g id="edge5" class="edge">
<title>client-A-&gt;client-B</title>
<path fill="none" stroke="#000000" d="M60.6634,-34.5792C74.9833,-44.4245 95.5409,-56.7046 113.8586,-66.5248"/>
<polygon fill="#000000" stroke="#000000" points="112.4281,-69.7266 122.9102,-71.2679 115.6771,-63.5263 112.4281,-69.7266"/>
</g>
<!-- server&#45;&gt;client&#45;A -->
<g id="edge3" class="edge">
<title>server-&gt;client-A</title>
<path fill="none" stroke="#000000" d="M47.5205,-130.0345C49.7477,-108.2808 50.022,-71.5275 48.3436,-46.0782"/>
<polygon fill="#000000" stroke="#000000" points="51.8175,-45.6174 47.5047,-35.9401 44.8414,-46.1947 51.8175,-45.6174"/>
</g>
<!-- server&#45;&gt;client&#45;B -->
<g id="edge4" class="edge">
<title>server-&gt;client-B</title>
<path fill="none" stroke="#000000" d="M71.7136,-138.0614C89.4764,-129.1874 111.9839,-116.2683 129.1973,-105.1"/>
<polygon fill="#000000" stroke="#000000" points="131.2883,-107.9124 137.663,-99.45 127.4024,-102.09 131.2883,-107.9124"/>
</g>
<!-- client&#45;B&#45;&gt;client&#45;A -->
<g id="edge6" class="edge">
<title>client-B-&gt;client-A</title>
<path fill="none" stroke="#000000" d="M137.3821,-66.485C123.0623,-56.6396 102.5046,-44.3595 84.1869,-34.5393"/>
<polygon fill="#000000" stroke="#000000" points="85.6174,-31.3376 75.1353,-29.7962 82.3684,-37.5379 85.6174,-31.3376"/>
</g>
<!-- client&#45;B&#45;&gt;server -->
<g id="edge2" class="edge">
<title>client-B-&gt;server</title>
<path fill="none" stroke="#000000" d="M123.0521,-94.7879C105.5989,-103.6981 84.3839,-115.9677 68.1141,-126.5698"/>
<polygon fill="#000000" stroke="#000000" points="65.9931,-123.7781 59.6394,-132.2564 69.8935,-129.5908 65.9931,-123.7781"/>
</g>
</g>
</svg>