<?xml version="1.0" encoding="UTF-8" standalone="no"?><!DOCTYPE svg PUBLIC "-//W3C//DTD SVG 1.1//EN" "http://www.w3.org/Graphics/SVG/1.1/DTD/svg11.dtd"><!-- Generated by graphviz version 2.40.1 (20161225.0304)
 --><!-- Title: G Pages: 1 --><svg xmlns="http://www.w3.org/2000/svg" xmlns:xlink="http://www.w3.org/1999/xlink" width="274pt" height="250pt" viewBox="0.00 0.00 274.00 249.60">
<g id="graph0" class="graph" transform="scale(1 1) rotate(0) translate(4 245.6)">
<title>G</title>
<polygon fill="#ffffff" stroke="transparent" points="-4,4 -4,-245.6 270,-245.6 270,4 -4,4"/>
<g id="clust1" class="cluster">
<title>cluster_0</title>
<polygon fill="#d3d3d3" stroke="#d3d3d3" points="8,-80 8,-233.6 80,-233.6 80,-80 8,-80"/>
<text text-anchor="middle" x="44" y="-217" font-family="Times,serif" font-size="14.00" fill="#000000">client-A</text>
</g>
<g id="clust2" class="cluster">
<title>cluster_2</title>
<polygon fill="#d3d3d3" stroke="#d3d3d3" points="186,-80 186,-233.6 258,-233.6 258,-80 186,-80"/>
<text text-anchor="middle" x="222" y="-217" font-family="Times,serif" font-size="14.00" fill="#000000">client-B</text>
</g>
<g id="clust3" class="cluster">
<title>cluster_1</title>
<polygon fill="none" stroke="#000000" points="88,-8 88,-156.8 178,-156.8 178,-8 88,-8"/>
<text text-anchor="middle" x="133" y="-140.2" font-family="Times,serif" font-size="14.00" fill="#000000">server</text>
</g>
<!-- t0 -->
<g id="t0" class="node">
<title>t0</title>
<ellipse fill="#ffffff" stroke="#ffffff" cx="44" cy="-182.8" rx="28.4127" ry="18"/>
<text text-anchor="middle" x="44" y="-178.6" font-family="Times,serif" font-size="14.00" fill="#000000">tun0</text>
</g>
<!-- u0 -->
<g id="u0" class="node">
<title>u0</title>
<ellipse fill="#ffffff" stroke="#ffffff" cx="44" cy="-106" rx="27" ry="18"/>
<text text-anchor="middle" x="44" y="-101.8" font-family="Times,serif" font-size="14.00" fill="#000000">udp</text>
</g>
<!-- t0&#45;&gt;u0 -->
<g id="edge1" class="edge">
<title>t0-&gt;u0</title>
<path fill="none" stroke="#0000ff" d="M38.1992,-164.9875C37.2574,-155.779 37.0165,-144.328 37.4763,-133.9718"/>
<polygon fill="#0000ff" stroke="#0000ff" points="40.9874,-133.94 38.2091,-123.7159 34.0052,-133.441 40.9874,-133.94"/>
</g>
<!-- u0&#45;&gt;t0 -->
<g id="edge2" class="edge">
<title>u0-&gt;t0</title>
<path fill="none" stroke="#000000" d="M49.7909,-123.7159C50.7376,-132.9087 50.9834,-144.3556 50.5285,-154.7194"/>
<polygon fill="#000000" stroke="#000000" points="47.0166,-154.765 49.8008,-164.9875 53.9991,-155.26 47.0166,-154.765"/>
</g>
<!-- u1 -->
<g id="u1" class="node">
<title>u1</title>
<ellipse fill="#d3d3d3" stroke="#000000" cx="124" cy="-34" rx="27" ry="18"/>
<text text-anchor="middle" x="124" y="-29.8" font-family="Times,serif" font-size="14.00" fill="#000000">udp</text>
</g>
<!-- u0&#45;&gt;u1 -->
<g id="edge8" class="edge">
<title>u0-&gt;u1</title>
<path fill="none" stroke="#0000ff" d="M63.6183,-93.1278C76.0857,-83.2128 91.9624,-69.2389 104.4047,-57.3652"/>
<polygon fill="#0000ff" stroke="#0000ff" points="106.9339,-59.7874 111.6469,-50.2985 102.0453,-54.7773 106.9339,-59.7874"/>
</g>
<!-- t2 -->
<g id="t2" class="node">
<title>t2</title>
<ellipse fill="#ffffff" stroke="#ffffff" cx="222" cy="-182.8" rx="28.4127" ry="18"/>
<text text-anchor="middle" x="222" y="-178.6" font-family="Times,serif" font-size="14.00" fill="#000000">tun0</text>
</g>
<!-- u2 -->
<g id="u2" class="node">
<title>u2</title>
<ellipse fill="#ffffff" stroke="#ffffff" cx="222" cy="-106" rx="27" ry="18"/>
<text text-anchor="middle" x="222" y="-101.8" font-family="Times,serif" font-size="14.00" fill="#000000">udp</text>
</g>
<!-- t2&#45;&gt;u2 -->
<g id="edge3" class="edge">
<title>t2-&gt;u2</title>
<path fill="none" stroke="#000000" d="M216.1992,-164.9875C215.2574,-155.779 215.0165,-144.328 215.4763,-133.9718"/>
<polygon fill="#000000" stroke="#000000" points="218.9874,-133.94 216.2091,-123.7159 212.0052,-133.441 218.9874,-133.94"/>
</g>
<!-- u2&#45;&gt;t2 -->
<g id="edge4" class="edge">
<title>u2-&gt;t2</title>
<path fill="none" stroke="#0000ff" d="M227.7909,-123.7159C228.7376,-132.9087 228.9834,-144.3556 228.5285,-154.7194"/>
<polygon fill="#0000ff" stroke="#0000ff" points="225.0166,-154.765 227.8008,-164.9875 231.9991,-155.26 225.0166,-154.765"/>
</g>
<!-- u2&#45;&gt;u1 -->
<g id="edge10" class="edge">
<title>u2-&gt;u1</title>
<path fill="none" stroke="#000000" d="M206.8527,-90.7307C192.649,-79.2712 171.3507,-63.5604 153.8183,-51.5774"/>
<polygon fill="#000000" stroke="#000000" points="155.3045,-48.3597 145.0507,-45.6932 151.4036,-54.1721 155.3045,-48.3597"/>
</g>
<!-- t1 -->
<g id="t1" class="node">
<title>t1</title>
<ellipse fill="#d3d3d3" stroke="#000000" cx="124" cy="-106" rx="28.4127" ry="18"/>
<text text-anchor="middle" x="124" y="-101.8" font-family="Times,serif" font-size="14.00" fill="#000000">tun0</text>
</g>
<!-- t1&#45;&gt;t1 -->
<g id="edge7" class="edge">
<title>t1-&gt;t1</title>
<path fill="none" stroke="#0000ff" d="M144.428,-118.4321C157.5637,-121.6753 170.2056,-117.5313 170.2056,-106 170.2056,-97.5317 163.3878,-93.0474 154.5633,-92.5471"/>
<polygon fill="#0000ff" stroke="#0000ff" points="154.027,-89.0833 144.428,-93.5679 154.7285,-96.0481 154.027,-89.0833"/>
</g>
<!-- t1&#45;&gt;u1 -->
<g id="edge5" class="edge">
<title>t1-&gt;u1</title>
<path fill="none" stroke="#0000ff" d="M118.0843,-88.2022C117.2798,-80.1807 117.0571,-70.5231 117.4162,-61.5957"/>
<polygon fill="#0000ff" stroke="#0000ff" points="120.9097,-61.8099 118.105,-51.593 113.9262,-61.3289 120.9097,-61.8099"/>
</g>
<!-- u1&#45;&gt;u0 -->
<g id="edge9" class="edge">
<title>u1-&gt;u0</title>
<path fill="none" stroke="#000000" d="M104.6114,-46.6896C92.1355,-56.5947 76.1799,-70.6302 63.6725,-82.5611"/>
<polygon fill="#000000" stroke="#000000" points="61.1072,-80.1741 56.3924,-89.6621 65.9949,-85.1851 61.1072,-80.1741"/>
</g>
<!-- u1&#45;&gt;u2 -->
<g id="edge11" class="edge">
<title>u1-&gt;u2</title>
<path fill="none" stroke="#0000ff" d="M138.8668,-49.0429C153.2344,-60.6544 175.0328,-76.7288 192.7948,-88.8411"/>
<polygon fill="#0000ff" stroke="#0000ff" points="190.8838,-91.7737 201.1398,-94.432 194.78,-85.9582 190.8838,-91.7737"/>
</g>
<!-- u1&#45;&gt;t1 -->
<g id="edge6" class="edge">
<title>u1-&gt;t1</title>
<path fill="none" stroke="#0000ff" d="M129.895,-51.593C130.7094,-59.5865 130.942,-69.2363 130.5928,-78.1759"/>
<polygon fill="#0000ff" stroke="#0000ff" points="127.0976,-77.9891 129.9157,-88.2022 134.0817,-78.4608 127.0976,-77.9891"/>
</g>
</g>
</svg>