<?xml version="1.0" encoding="UTF-8" standalone="no"?><!DOCTYPE svg PUBLIC "-//W3C//DTD SVG 1.1//EN" "http://www.w3.org/Graphics/SVG/1.1/DTD/svg11.dtd"><!-- Generated by graphviz version 2.40.1 (20161225.0304)
 --><!-- Title: finite_state_machine Pages: 1 --><svg xmlns="http://www.w3.org/2000/svg" xmlns:xlink="http://www.w3.org/1999/xlink" width="594pt" height="567pt" viewBox="0.00 0.00 594.01 566.70">
<g id="graph0" class="graph" transform="scale(1 1) rotate(0) translate(4 562.7023)">
<title>finite_state_machine</title>
<polygon fill="#ffffff" stroke="transparent" points="-4,4 -4,-562.7023 590.0135,-562.7023 590.0135,4 -4,4"/>
<!-- None -->
<g id="node1" class="node">
<title>None</title>
<ellipse fill="none" stroke="#000000" cx="210.4205" cy="-522.7507" rx="31.9085" ry="31.9085"/>
<ellipse fill="none" stroke="#000000" cx="210.4205" cy="-522.7507" rx="35.9031" ry="35.9031"/>
<text text-anchor="middle" x="210.4205" y="-518.5507" font-family="Times,serif" font-size="14.00" fill="#000000">None</text>
</g>
<!-- HandshakeSent -->
<g id="node3" class="node">
<title>HandshakeSent</title>
<ellipse fill="none" stroke="#000000" cx="121.4205" cy="-344.134" rx="71.2094" ry="71.2094"/>
<text text-anchor="middle" x="121.4205" y="-339.934" font-family="Times,serif" font-size="14.00" fill="#000000">HandshakeSent</text>
</g>
<!-- None&#45;&gt;HandshakeSent -->
<g id="edge1" class="edge">
<title>None-&gt;HandshakeSent</title>
<path fill="none" stroke="#000000" d="M177.0287,-508.7986C160.1918,-499.9303 141.189,-486.7124 130.8089,-468.7992 123.2212,-455.705 119.0703,-440.4954 117.047,-425.2941"/>
<polygon fill="#000000" stroke="#000000" points="120.5263,-424.9122 116.0099,-415.3283 113.5639,-425.6369 120.5263,-424.9122"/>
<text text-anchor="middle" x="203.7263" y="-456.1992" font-family="Times,serif" font-size="14.00" fill="#000000">Send(Packet::Handshake)</text>
</g>
<!-- HandshakeReceived -->
<g id="node4" class="node">
<title>HandshakeReceived</title>
<ellipse fill="none" stroke="#000000" cx="321.4205" cy="-344.134" rx="89.7306" ry="89.7306"/>
<text text-anchor="middle" x="321.4205" y="-339.934" font-family="Times,serif" font-size="14.00" fill="#000000">HandshakeReceived</text>
</g>
<!-- None&#45;&gt;HandshakeReceived -->
<g id="edge2" class="edge">
<title>None-&gt;HandshakeReceived</title>
<path fill="none" stroke="#000000" d="M240.6391,-502.9724C252.7917,-493.7815 266.103,-481.9685 275.4205,-468.7992 281.6944,-459.9317 287.2166,-450.1087 292.0513,-439.9818"/>
<polygon fill="#000000" stroke="#000000" points="295.3567,-441.1675 296.3,-430.6148 288.9818,-438.276 295.3567,-441.1675"/>
<text text-anchor="middle" x="358.1106" y="-456.1992" font-family="Times,serif" font-size="14.00" fill="#000000">Recv(Packet::Handshake)</text>
</g>
<!-- Connected -->
<g id="node2" class="node">
<title>Connected</title>
<ellipse fill="none" stroke="#000000" cx="166.4205" cy="-145.1344" rx="52.1811" ry="52.1811"/>
<ellipse fill="none" stroke="#000000" cx="166.4205" cy="-145.1344" rx="56.1693" ry="56.1693"/>
<text text-anchor="middle" x="166.4205" y="-140.9344" font-family="Times,serif" font-size="14.00" fill="#000000">Connected</text>
</g>
<!-- self.set_remote_idx_from(Packet::HandShakeResponse) -->
<g id="node6" class="node">
<title>self.set_remote_idx_from(Packet::HandShakeResponse)</title>
<polygon fill="none" stroke="#000000" points="332.7615,-36 .0795,-36 .0795,0 332.7615,0 332.7615,-36"/>
<text text-anchor="middle" x="166.4205" y="-13.8" font-family="Times,serif" font-size="14.00" fill="#000000">self.set_remote_idx_from(Packet::HandShakeResponse)</text>
</g>
<!-- Connected&#45;&gt;self.set_remote_idx_from(Packet::HandShakeResponse) -->
<g id="edge6" class="edge">
<title>Connected-&gt;self.set_remote_idx_from(Packet::HandShakeResponse)</title>
<path fill="none" stroke="#000000" stroke-dasharray="1,5" d="M166.4205,-88.631C166.4205,-73.9614 166.4205,-58.7837 166.4205,-46.2752"/>
<polygon fill="#000000" stroke="#000000" points="169.9206,-46.0497 166.4205,-36.0497 162.9206,-46.0497 169.9206,-46.0497"/>
<text text-anchor="middle" x="272.5524" y="-58.2" font-family="Times,serif" font-size="14.00" fill="#000000"> if transitioned_from(HandshakeSent)</text>
</g>
<!-- HandshakeSent&#45;&gt;Connected -->
<g id="edge3" class="edge">
<title>HandshakeSent-&gt;Connected</title>
<path fill="none" stroke="#000000" d="M97.3265,-277.1848C93.8692,-258.1292 93.4847,-237.6269 100.3853,-219.4689 104.3291,-209.0913 110.4589,-199.2365 117.4276,-190.2967"/>
<polygon fill="#000000" stroke="#000000" points="120.3269,-192.2838 124.0246,-182.3552 114.9424,-187.8109 120.3269,-192.2838"/>
<text text-anchor="middle" x="199.9381" y="-223.6689" font-family="Times,serif" font-size="14.00" fill="#000000">Recv(Packet::HandshakeResponse)</text>
</g>
<!-- HandshakeReceived&#45;&gt;Connected -->
<g id="edge4" class="edge">
<title>HandshakeReceived-&gt;Connected</title>
<path fill="none" stroke="#000000" d="M315.5494,-254.4128C311.9731,-241.9401 306.8053,-229.8589 299.4205,-219.4689 282.3601,-195.4656 254.9854,-178.2813 229.4938,-166.5246"/>
<polygon fill="#000000" stroke="#000000" points="230.7725,-163.2634 220.21,-162.4362 227.9512,-169.6697 230.7725,-163.2634"/>
<text text-anchor="middle" x="363.2263" y="-223.6689" font-family="Times,serif" font-size="14.00" fill="#000000">Recv(Packet::Data)</text>
</g>
<!-- self.set_remote_idx_from(Packet::HandShake) -->
<g id="node5" class="node">
<title>self.set_remote_idx_from(Packet::HandShake)</title>
<polygon fill="none" stroke="#000000" points="586.1066,-163.1344 306.7344,-163.1344 306.7344,-127.1344 586.1066,-127.1344 586.1066,-163.1344"/>
<text text-anchor="middle" x="446.4205" y="-140.9344" font-family="Times,serif" font-size="14.00" fill="#000000">self.set_remote_idx_from(Packet::HandShake)</text>
</g>
<!-- HandshakeReceived&#45;&gt;self.set_remote_idx_from(Packet::HandShake) -->
<g id="edge5" class="edge">
<title>HandshakeReceived-&gt;self.set_remote_idx_from(Packet::HandShake)</title>
<path fill="none" stroke="#000000" stroke-dasharray="1,5" d="M392.4188,-288.6653C407.8525,-273.295 422.5071,-255.4947 432.4205,-236.2689 442.4633,-216.7922 445.7688,-192.0855 446.6706,-173.3117"/>
<polygon fill="#000000" stroke="#000000" points="450.1697,-173.3912 446.9544,-163.296 443.1725,-173.1929 450.1697,-173.3912"/>
</g>
</g>
</svg>